# xmcd
#
# Track frame offsets:
#	150
#	18932
#	39010
#	58082
#	74297
#	91952
#	108885
#	128497
#	144530
#	164257
#	184205
#	201495
#
# Disc length: 2901 seconds
#
# Revision: 6
# Processed by: cddbd v1.5.2PL0 Copyright (c) Steve Scherf et al.
# Submitted via: EasyCDDAExtractor 15.3.0.1
#
DISCID=9e0b530c
DTITLE=Alejandro Fernandez - Viento A Favor
DYEAR=2007
DGENRE=Latin
TTITLE0=Te Voy A Perder
TTITLE1=A Manos Llenas
TTITLE2=Tanto Amar
TTITLE3=Amenaza De Lluvia
TTITLE4=Eres
TTITLE5=No Se Me Hace Facil
TTITLE6=Estabas Ahi
TTITLE7=Sin Consideracion
TTITLE8=Solitario Y Solo
TTITLE9=Sueño Contigo
TTITLE10=Amor Gitano (Featuring Beyonce)
TTITLE11=Cuando Estamos Juntos
EXTD=
EXTT0=
EXTT1=
EXTT2=
EXTT3=
EXTT4=
EXTT5=
EXTT6=
EXTT7=
EXTT8=
EXTT9=
EXTT10=
EXTT11=
PLAYORDER=
